HIERARCHY
ROOT Hips
{
	OFFSET 0.00000 0.00000 0.00000
	CHANNELS 6 Xposition Yposition Zposition Zrotation Yrotation Xrotation 
	JOINT LHipJoint
	{
		OFFSET 0 0 0
		CHANNELS 3 Zrotation Yrotation Xrotation
		JOINT LeftUpLeg
		{
			OFFSET 1.38280 -1.96574 0.54427
			CHANNELS 3 Zrotation Yrotation Xrotation
			JOINT LeftLeg
			{
				OFFSET 2.72096 -7.47578 0.00000
				CHANNELS 3 Zrotation Yrotation Xrotation
				JOINT LeftFoot
				{
					OFFSET 2.73041 -7.50176 0.00000
					CHANNELS 3 Zrotation Yrotation Xrotation
					JOINT LeftToeBase
					{
						OFFSET 0.16150 -0.44371 2.18031
						CHANNELS 3 Zrotation Yrotation Xrotation
						End Site
						{
							OFFSET 0.00000 -0.00000 1.12127
						}
					}
				}
			}
		}
	}
	JOINT RHipJoint
	{
		OFFSET 0 0 0
		CHANNELS 3 Zrotation Yrotation Xrotation
		JOINT RightUpLeg
		{
			OFFSET -1.57224 -1.96575 0.54427
			CHANNELS 3 Zrotation Yrotation Xrotation
			JOINT RightLeg
			{
				OFFSET -2.95935 -8.13076 0.00000
				CHANNELS 3 Zrotation Yrotation Xrotation
				JOINT RightFoot
				{
					OFFSET -2.52345 -6.93311 0.00000
					CHANNELS 3 Zrotation Yrotation Xrotation
					JOINT RightToeBase
					{
						OFFSET -0.04475 -0.10171 1.86688
						CHANNELS 3 Zrotation Yrotation Xrotation
						End Site
						{
							OFFSET -0.00000 -0.00000 0.95157
						}
					}
				}
			}
		}
	}
	JOINT LowerBack
	{
		OFFSET 0 0 0
		CHANNELS 3 Zrotation Yrotation Xrotation
		JOINT Spine
		{
			OFFSET 0.00669 2.07367 0.09104
			CHANNELS 3 Zrotation Yrotation Xrotation
			JOINT Spine1
			{
				OFFSET -0.00664 2.06198 -0.04732
				CHANNELS 3 Zrotation Yrotation Xrotation
				JOINT Neck
				{
					OFFSET 0 0 0
					CHANNELS 3 Zrotation Yrotation Xrotation
					JOINT Neck1
					{
						OFFSET -0.00021 1.49948 0.16345
						CHANNELS 3 Zrotation Yrotation Xrotation
						JOINT Head
						{
							OFFSET 0.06080 1.50567 -0.26702
							CHANNELS 3 Zrotation Yrotation Xrotation
							End Site
							{
								OFFSET 0.01726 1.56470 -0.11854
							}
						}
					}
				}
				JOINT LeftShoulder
				{
					OFFSET 0 0 0
					CHANNELS 3 Zrotation Yrotation Xrotation
					JOINT LeftArm
					{
						OFFSET 3.14993 0.82932 -0.22488
						CHANNELS 3 Zrotation Yrotation Xrotation
						JOINT LeftForeArm
						{
							OFFSET 5.68236 -0.00000 -0.00000
							CHANNELS 3 Zrotation Yrotation Xrotation
							JOINT LeftHand
							{
								OFFSET 3.17112 -0.00000 0.00000
								CHANNELS 3 Zrotation Yrotation Xrotation
								JOINT LeftFingerBase
								{
									OFFSET 0 0 0
									CHANNELS 3 Zrotation Yrotation Xrotation
									JOINT LeftHandIndex1
									{
										OFFSET 0.63269 -0.00000 0.00000
										CHANNELS 3 Zrotation Yrotation Xrotation
										End Site
										{
											OFFSET 0.51009 -0.00000 0.00000
										}
									}
								}
								JOINT LThumb
								{
									OFFSET 0 0 0
									CHANNELS 3 Zrotation Yrotation Xrotation
									End Site
									{
										OFFSET 0.51788 -0.00000 0.51788
									}
								}
							}
						}
					}
				}
				JOINT RightShoulder
				{
					OFFSET 0 0 0
					CHANNELS 3 Zrotation Yrotation Xrotation
					JOINT RightArm
					{
						OFFSET -3.10571 0.91279 -0.33334
						CHANNELS 3 Zrotation Yrotation Xrotation
						JOINT RightForeArm
						{
							OFFSET -5.87120 -0.00000 -0.00000
							CHANNELS 3 Zrotation Yrotation Xrotation
							JOINT RightHand
							{
								OFFSET -3.37589 -0.00000 0.00000
								CHANNELS 3 Zrotation Yrotation Xrotation
								JOINT RightFingerBase
								{
									OFFSET 0 0 0
									CHANNELS 3 Zrotation Yrotation Xrotation
									JOINT RightHandIndex1
									{
										OFFSET -0.60326 -0.00000 0.00000
										CHANNELS 3 Zrotation Yrotation Xrotation
										End Site
										{
											OFFSET -0.48636 -0.00000 0.00000
										}
									}
								}
								JOINT RThumb
								{
									OFFSET 0 0 0
									CHANNELS 3 Zrotation Yrotation Xrotation
									End Site
									{
										OFFSET -0.49379 -0.00000 0.49379
									}
								}
							}
						}
					}
				}
			}
		}
	}
}
MOTION
Frames: 15
Frame Time: .0083333
7.5149 18.2522 -3.3654 0 0 0 0 0 0 -21 0 0 0 0 0 0 0 0 0 0 0 0 0 0 21 0 0 0 0 0 0 0 0 0 0 0 0 0 0 0 0 0 0 0 0 0 0 -16 0 0 21 0 0 11 0 0 0 -8 0 0 0 0 0 0 0 0 0 0 0 0 0 0 0 0 0 0 0 0 8 0 0 0 0 0 0 0 0 0 0 0 0 0 0 0 0 0
7.5149 18.2522 -3.3654 178.5590 -84.3141 -167.8390 0.0000 0.0000 0.0000 -16.8813 -7.9319 -25.2569 7.2655 15.5515 49.8716 0.9498 -3.2523 -17.6125 2.0785 -9.0278 -25.8823 0.0000 0.0000 0.0000 21.6526 11.4126 -17.3698 -2.9114 -10.5503 30.7777 0.5207 12.6647 4.3998 -6.2144 -14.6329 45.8363 1.4395 -0.0348 -7.0626 2.5896 -0.3710 2.1331 1.8488 -0.1961 6.2048 -0.7391 0.7632 -19.4357 -1.7967 1.6040 19.3397 -0.2874 0.4478 9.3147 0.0000 -0.0000 0.0000 -86.2582 2.8930 31.8456 18.8678 -29.2541 -4.9661 -0.0000 0.0000 -17.4677 18.2630 34.6455 10.6255 -7.1250 0.0000 -0.0000 -19.0509 65.0642 -9.4007 0.0000 -0.0000 0.0000 88.1657 3.3816 2.5872 -15.3562 24.6400 -3.3731 0.0000 0.0000 20.7096 -27.1429 27.9311 -13.5033 7.1250 -0.0000 -0.0000 1.9086 0.7908 1.9358
7.4847 18.2504 -3.3935 177.8010 -84.3761 -167.0920 0.0000 0.0000 0.0000 -16.7932 -8.0716 -26.0948 7.5813 15.8025 51.0401 0.9793 -2.8604 -17.9607 2.0194 -8.9065 -25.5031 0.0000 0.0000 0.0000 21.6959 11.4074 -17.1978 -2.8991 -10.5299 30.7102 0.5284 12.7592 4.3308 -6.2446 -14.6612 45.9555 1.5449 0.0613 -7.0811 2.5406 -0.2504 2.1534 1.7533 -0.1313 6.2335 -0.6724 0.6923 -19.5982 -1.6931 1.4671 19.6078 -0.2812 0.3962 9.4361 0.0000 0.0000 0.0000 -86.2186 2.8908 32.1533 18.8934 -29.2860 -4.9786 -0.0000 0.0000 -17.4459 18.0683 34.4881 10.4661 -7.1250 0.0000 -0.0000 -19.1177 64.8634 -9.3460 0.0000 0.0000 0.0000 88.4174 3.8504 3.9536 -15.3668 24.6546 -3.3775 0.0000 0.0000 20.7034 -27.2384 28.1170 -13.6366 7.1250 -0.0000 -0.0000 1.8826 1.0102 1.9165
7.4537 18.2524 -3.4185 177.4220 -84.3062 -166.7000 0.0000 0.0000 0.0000 -16.7050 -8.1496 -26.9481 7.8632 16.0177 52.0684 1.0145 -2.2958 -18.4053 1.9881 -8.8413 -25.3001 0.0000 0.0000 0.0000 21.7419 11.4045 -17.0476 -2.8838 -10.5045 30.6264 0.5296 12.7718 4.3716 -6.2540 -14.6701 45.9930 1.6212 0.1653 -7.1310 2.5485 -0.1219 2.1643 1.7351 -0.0655 6.2711 -0.6042 0.6700 -19.5908 -1.6993 1.4169 19.7316 -0.3018 0.3751 9.4783 0.0000 -0.0000 0.0000 -86.3077 2.9089 32.3744 18.9020 -29.2968 -4.9828 -0.0000 0.0000 -17.4011 17.9300 34.3060 10.3353 -7.1250 0.0000 -0.0000 -19.0968 64.6557 -9.2435 0.0000 -0.0000 0.0000 88.5097 4.3087 5.5501 -15.3810 24.6742 -3.3834 0.0000 0.0000 20.6143 -27.2698 28.1723 -13.6780 7.1250 -0.0000 -0.0000 1.8731 1.0761 1.9089
7.4225 18.2547 -3.4428 176.8950 -84.2008 -166.1420 0.0000 0.0000 0.0000 -16.6406 -8.2385 -27.8405 8.1340 16.2169 53.0439 1.0531 -1.6509 -18.9149 1.9673 -8.7976 -25.1643 0.0000 0.0000 0.0000 21.7554 11.4059 -16.9304 -2.8717 -10.4844 30.5601 0.5325 12.8056 4.4277 -6.2498 -14.6662 45.9764 1.6838 0.2807 -7.1664 2.5375 0.0260 2.1510 1.7069 0.0099 6.2747 -0.5250 0.6437 -19.5551 -1.6985 1.3552 19.8771 -0.3236 0.3501 9.5228 -0.0000 0.0000 0.0000 -86.3901 2.9581 32.5592 18.9136 -29.3112 -4.9885 -0.0000 0.0000 -17.3551 17.8383 34.2072 10.2547 -7.1250 0.0000 -0.0000 -19.1050 64.5384 -9.1956 -0.0000 0.0000 0.0000 88.5828 4.6972 7.2660 -15.4579 24.7801 -3.4156 0.0000 0.0000 20.4596 -27.2434 28.1980 -13.6741 7.1250 -0.0000 -0.0000 1.8927 1.0971 1.9296
7.3909 18.2553 -3.4672 176.3380 -84.1165 -165.5630 0.0000 0.0000 0.0000 -16.5808 -8.3384 -28.6973 8.3811 16.3925 53.9240 1.0877 -1.0437 -19.3960 1.8941 -8.6420 -24.6816 0.0000 0.0000 0.0000 21.7712 11.4234 -16.7961 -2.8613 -10.4671 30.5029 0.5390 12.8815 4.4422 -6.2453 -14.6619 45.9583 1.7406 0.3930 -7.1871 2.5223 0.1713 2.1345 1.6772 0.0840 6.2668 -0.4621 0.6080 -19.5217 -1.6693 1.2784 20.0382 -0.3350 0.3199 9.5729 0.0000 -0.0000 0.0000 -86.4693 3.0175 32.7306 18.9352 -29.3381 -4.9991 -0.0000 0.0000 -17.3139 17.7485 34.1710 10.1914 -7.1250 0.0000 -0.0000 -19.1722 64.4800 -9.2032 0.0000 -0.0000 0.0000 88.6448 5.0563 8.9930 -15.5715 24.9361 -3.4633 0.0000 0.0000 20.3289 -27.2087 28.2731 -13.6866 7.1250 -0.0000 -0.0000 1.9252 1.1684 1.9652
7.3587 18.2543 -3.4920 175.7200 -84.0658 -164.9390 0.0000 0.0000 0.0000 -16.5265 -8.4636 -29.5178 8.6014 16.5443 54.7011 1.1186 -0.5119 -19.8351 1.7791 -8.3899 -23.9047 0.0000 0.0000 0.0000 21.7907 11.4639 -16.6366 -2.8544 -10.4555 30.4646 0.5510 13.0236 4.4008 -6.2391 -14.6561 45.9340 1.7838 0.4972 -7.1821 2.5041 0.3085 2.1140 1.6507 0.1536 6.2404 -0.4196 0.5620 -19.5095 -1.6053 1.1854 20.2370 -0.3333 0.2842 9.6396 0.0000 -0.0000 0.0000 -86.5489 3.0920 32.8853 18.9750 -29.3876 -5.0186 -0.0000 0.0000 -17.2771 17.6559 34.2281 10.1505 -7.1250 0.0000 -0.0000 -19.3328 64.5078 -9.2955 0.0000 -0.0000 0.0000 88.6867 5.3807 10.7326 -15.7311 25.1547 -3.5309 0.0000 0.0000 20.2317 -27.1647 28.4048 -13.7179 7.1250 -0.0000 -0.0000 1.9722 1.2973 2.0176
7.3256 18.2521 -3.5174 174.9960 -84.0672 -164.2340 0.0000 0.0000 0.0000 -16.4767 -8.6222 -30.2852 8.7930 16.6727 55.3716 1.1419 -0.1070 -20.1748 1.6355 -8.0615 -22.9011 0.0000 0.0000 0.0000 21.8190 11.5219 -16.4312 -2.8484 -10.4455 30.4319 0.5683 13.2271 4.2931 -6.2344 -14.6517 45.9153 1.8044 0.5815 -7.1504 2.4889 0.4218 2.0977 1.6365 0.2106 6.2036 -0.4012 0.5102 -19.5321 -1.5123 1.0846 20.4698 -0.3186 0.2460 9.7246 -0.0000 0.0000 0.0000 -86.6330 3.1775 33.0289 19.0346 -29.4616 -5.0478 -0.0000 0.0000 -17.2448 17.5502 34.3718 10.1234 -7.1250 0.0000 -0.0000 -19.5941 64.6125 -9.4734 -0.0000 0.0000 0.0000 88.6991 5.6878 12.4841 -15.9271 25.4217 -3.6146 0.0000 0.0000 20.1678 -27.1360 28.6005 -13.7848 7.1250 -0.0000 -0.0000 2.0209 1.4973 2.0743
7.2914 18.2500 -3.5430 174.1790 -84.1042 -163.4610 0.0000 0.0000 0.0000 -16.4317 -8.8025 -30.9946 8.9522 16.7769 55.9246 1.1554 0.1571 -20.3847 1.4734 -7.6701 -21.7166 0.0000 0.0000 0.0000 21.8555 11.5775 -16.1790 -2.8402 -10.4318 30.3867 0.5874 13.4534 4.1494 -6.2307 -14.6482 45.9006 1.8053 0.6466 -7.1023 2.4789 0.5114 2.0898 1.6358 0.2550 6.1665 -0.3975 0.4593 -19.5684 -1.4155 0.9881 20.7065 -0.2996 0.2092 9.8138 0.0000 0.0000 0.0000 -86.7244 3.2695 33.1659 19.1043 -29.5481 -5.0822 -0.0000 0.0000 -17.2279 17.4354 34.5421 10.0971 -7.1250 0.0000 -0.0000 -19.8941 64.7388 -9.6821 0.0000 0.0000 0.0000 88.6698 5.9941 14.2580 -16.1453 25.7173 -3.7088 0.0000 0.0000 20.1155 -27.1514 28.8852 -13.9143 7.1250 -0.0000 -0.0000 2.0587 1.8016 2.1238
7.2554 18.2491 -3.5682 173.3440 -84.1443 -162.6910 0.0000 0.0000 0.0000 -16.3900 -8.9838 -31.6472 9.0769 16.8569 56.3556 1.1605 0.2987 -20.4792 1.3053 -7.2377 -20.4214 0.0000 0.0000 0.0000 21.8990 11.6041 -15.8890 -2.8274 -10.4102 30.3156 0.6055 13.6653 4.0211 -6.2264 -14.6442 45.8835 1.8032 0.7046 -7.0496 2.4678 0.5916 2.0935 1.6343 0.2947 6.1391 -0.3926 0.4117 -19.5998 -1.3318 0.8984 20.9246 -0.2844 0.1745 9.8960 0.0000 0.0000 0.0000 -86.8148 3.3590 33.3001 19.1707 -29.6302 -5.1150 -0.0000 0.0000 -17.2561 17.3245 34.6521 10.0576 -7.1250 0.0000 -0.0000 -20.1310 64.8101 -9.8350 0.0000 0.0000 0.0000 88.6032 6.3080 16.0615 -16.3875 26.0433 -3.8145 0.0000 0.0000 20.0223 -27.1893 29.2307 -14.0821 7.1250 -0.0000 -0.0000 2.0944 2.1750 2.1738
7.2164 18.2502 -3.5929 172.5630 -84.1633 -161.9950 0.0000 0.0000 0.0000 -16.3570 -9.1489 -32.2417 9.1650 16.9127 56.6590 1.1592 0.3902 -20.5007 1.1647 -6.8509 -19.2744 0.0000 0.0000 0.0000 21.9471 11.5818 -15.5689 -2.8092 -10.3796 30.2149 0.6211 13.8455 3.9444 -6.2214 -14.6395 45.8640 1.8140 0.7673 -7.0037 2.4473 0.6770 2.1107 1.6168 0.3377 6.1301 -0.3762 0.3670 -19.6108 -1.2603 0.8115 21.1097 -0.2749 0.1413 9.9631 0.0000 -0.0000 0.0000 -86.8921 3.4401 33.4391 19.2220 -29.6936 -5.1404 -0.0000 0.0000 -17.3591 17.2463 34.6403 10.0074 -7.1250 0.0000 -0.0000 -20.2078 64.7777 -9.8588 0.0000 -0.0000 0.0000 88.5157 6.6199 17.8851 -16.6733 26.4250 -3.9408 0.0000 0.0000 19.8512 -27.1795 29.5543 -14.2126 7.1250 -0.0000 -0.0000 2.1545 2.5135 2.2485
7.1739 18.2523 -3.6167 171.8370 -84.1553 -161.3640 0.0000 0.0000 0.0000 -16.3444 -9.2930 -32.7912 9.2149 16.9440 56.8304 1.1511 0.5218 -20.4776 1.0987 -6.6605 -18.7135 0.0000 0.0000 0.0000 21.9922 11.5096 -15.2374 -2.7871 -10.3421 30.0919 0.6341 13.9909 3.9213 -6.2156 -14.6341 45.8411 1.8416 0.8414 -6.9750 2.4129 0.7759 2.1359 1.5773 0.3885 6.1397 -0.3458 0.3240 -19.5943 -1.1919 0.7226 21.2635 -0.2691 0.1086 10.0142 0.0000 -0.0000 0.0000 -86.9504 3.5154 33.5962 19.2541 -29.7332 -5.1563 -0.0000 0.0000 -17.5335 17.2199 34.5031 9.9575 -7.1250 0.0000 -0.0000 -20.0996 64.6435 -9.7415 0.0000 -0.0000 0.0000 88.4241 6.9063 19.6750 -17.0219 26.8867 -4.0973 0.0000 0.0000 19.6358 -27.0765 29.8133 -14.2604 7.1250 -0.0000 -0.0000 2.2578 2.7607 2.3657
7.1291 18.2539 -3.6399 171.1300 -84.1341 -160.7440 0.0000 0.0000 0.0000 -16.3557 -9.4276 -33.3235 9.2259 16.9509 56.8681 1.1330 0.7465 -20.4014 1.1437 -6.7910 -19.0976 0.0000 0.0000 0.0000 22.0297 11.4041 -14.9203 -2.7634 -10.3018 29.9596 0.6451 14.1110 3.9250 -6.2057 -14.6248 45.8019 1.8741 0.9211 -6.9718 2.3720 0.8816 2.1623 1.5296 0.4429 6.1654 -0.3127 0.2822 -19.5640 -1.1235 0.6343 21.3959 -0.2636 0.0768 10.0552 0.0000 -0.0000 0.0000 -87.0030 3.5891 33.7674 19.2764 -29.7607 -5.1673 -0.0000 0.0000 -17.7405 17.2349 34.2977 9.9155 -7.1250 0.0000 -0.0000 -19.8788 64.4575 -9.5447 0.0000 -0.0000 0.0000 88.3275 7.1577 21.3825 -17.4401 27.4344 -4.2882 0.0000 0.0000 19.4236 -26.8723 29.9931 -14.2145 7.1250 -0.0000 -0.0000 2.4055 2.8998 2.5263
7.0831 18.2541 -3.6630 170.4290 -84.1190 -160.1070 0.0000 0.0000 0.0000 -16.3830 -9.5690 -33.8573 9.1990 16.9341 56.7760 1.1026 1.0598 -20.2519 1.3014 -7.2271 -20.3898 0.0000 0.0000 0.0000 22.0636 11.2846 -14.6316 -2.7397 -10.2613 29.8271 0.6546 14.2143 3.9255 -6.1890 -14.6090 45.7356 1.8936 0.9914 -6.9987 2.3394 0.9742 2.1907 1.4971 0.4902 6.2107 -0.2914 0.2448 -19.5369 -1.0645 0.5582 21.5057 -0.2576 0.0490 10.0889 0.0000 0.0000 0.0000 -87.0726 3.6600 33.9259 19.2997 -29.7894 -5.1789 -0.0000 0.0000 -17.9313 17.2786 34.0984 9.8919 -7.1250 0.0000 -0.0000 -19.6349 64.2845 -9.3443 0.0000 0.0000 0.0000 88.2098 7.3910 23.0074 -17.9158 28.0492 -4.5096 0.0000 0.0000 19.2208 -26.5789 30.1062 -14.0876 7.1250 -0.0000 -0.0000 2.5926 2.9471 2.7252
7.0370 18.2527 -3.6864 169.7960 -84.1169 -159.5120 0.0000 0.0000 0.0000 -16.4070 -9.7221 -34.3969 9.1368 16.8949 56.5619 1.0642 1.3717 -20.0310 1.5149 -7.7726 -22.0255 0.0000 0.0000 0.0000 22.1051 11.1702 -14.3710 -2.7162 -10.2208 29.6948 0.6625 14.3001 3.9102 -6.1684 -14.5896 45.6539 1.8971 1.0433 -7.0533 2.3233 1.0415 2.2197 1.4885 0.5239 6.2722 -0.2832 0.2164 -19.5169 -1.0256 0.5042 21.5924 -0.2533 0.0282 10.1159 0.0000 -0.0000 0.0000 -87.1652 3.7333 34.0516 19.3309 -29.8277 -5.1944 -0.0000 0.0000 -18.0754 17.3358 33.9559 9.8903 -7.1250 0.0000 -0.0000 -19.4328 64.1673 -9.1916 0.0000 -0.0000 0.0000 88.0617 7.6233 24.5711 -18.4220 28.6942 -4.7501 0.0000 0.0000 19.0007 -26.2350 30.2208 -13.9312 7.1250 -0.0000 -0.0000 2.8087 2.9844 2.9546
